<svg xmlns="http://www.w3.org/2000/svg" viewBox="0 0 800 450" fill="none">
  <rect width="800" height="450" fill="#0a0a0f"/>
  <circle cx="120" cy="225" r="36" fill="none" stroke="#0071E3" stroke-width="1.5" opacity="0.8"/>
  <circle cx="120" cy="225" r="16" fill="none" stroke="#0071E3" stroke-width="1" opacity="0.5"/>
  <circle cx="120" cy="225" r="5" fill="#0071E3" opacity="0.6"/>
  <text x="120" y="275" text-anchor="middle" fill="#86868B" font-size="9" font-family="monospace">Camera</text>
  <rect x="260" y="100" width="120" height="44" rx="8" fill="none" stroke="#2997FF" stroke-width="1.5" opacity="0.8"/>
  <text x="320" y="127" text-anchor="middle" fill="#2997FF" font-size="10" font-family="monospace">YOLOv8</text>
  <rect x="260" y="180" width="120" height="44" rx="8" fill="none" stroke="#2997FF" stroke-width="1.5" opacity="0.8"/>
  <text x="320" y="207" text-anchor="middle" fill="#2997FF" font-size="10" font-family="monospace">VLM</text>
  <rect x="260" y="280" width="120" height="44" rx="8" fill="none" stroke="#2997FF" stroke-width="1.5" opacity="0.8"/>
  <text x="320" y="307" text-anchor="middle" fill="#2997FF" font-size="10" font-family="monospace">Fusion</text>
  <rect x="480" y="160" width="140" height="80" rx="10" fill="none" stroke="#0071E3" stroke-width="2" opacity="0.9"/>
  <text x="550" y="190" text-anchor="middle" fill="#0071E3" font-size="11" font-family="monospace">Multimodal</text>
  <text x="550" y="210" text-anchor="middle" fill="#0071E3" font-size="11" font-family="monospace">Analysis</text>
  <text x="550" y="228" text-anchor="middle" fill="#86868B" font-size="8" font-family="monospace">&amp; Report</text>
  <rect x="700" y="180" width="60" height="44" rx="8" fill="none" stroke="#0071E3" stroke-width="1.5" opacity="0.8"/>
  <text x="730" y="207" text-anchor="middle" fill="#0071E3" font-size="9" font-family="monospace">NLP</text>
  <line x1="156" y1="225" x2="260" y2="122" stroke="#0071E3" stroke-width="1" opacity="0.4"/>
  <line x1="156" y1="225" x2="260" y2="202" stroke="#0071E3" stroke-width="1" opacity="0.4"/>
  <line x1="156" y1="225" x2="260" y2="302" stroke="#0071E3" stroke-width="1" opacity="0.4"/>
  <line x1="380" y1="122" x2="480" y2="185" stroke="#2997FF" stroke-width="1" opacity="0.4"/>
  <line x1="380" y1="202" x2="480" y2="200" stroke="#2997FF" stroke-width="1" opacity="0.4"/>
  <line x1="380" y1="302" x2="480" y2="215" stroke="#2997FF" stroke-width="1" opacity="0.4"/>
  <line x1="620" y1="200" x2="700" y2="202" stroke="#0071E3" stroke-width="1.5" opacity="0.5"/>
  <text x="400" y="420" text-anchor="middle" fill="#86868B" font-size="11" font-family="monospace" letter-spacing="2">MULTIMODAL VISION SYSTEM</text>
</svg>