<svg xmlns="http://www.w3.org/2000/svg" viewBox="0 0 800 450" fill="none">
  <rect width="800" height="450" fill="#0a0a0f"/>
  <circle cx="120" cy="225" r="28" fill="none" stroke="#0071E3" stroke-width="1.5" opacity="0.8"/>
  <text x="120" y="230" text-anchor="middle" fill="#0071E3" font-size="10" font-family="monospace">User</text>
  <circle cx="280" cy="120" r="28" fill="none" stroke="#2997FF" stroke-width="1.5" opacity="0.8"/>
  <text x="280" y="125" text-anchor="middle" fill="#2997FF" font-size="10" font-family="monospace">Query</text>
  <circle cx="280" cy="330" r="28" fill="none" stroke="#2997FF" stroke-width="1.5" opacity="0.8"/>
  <text x="280" y="335" text-anchor="middle" fill="#2997FF" font-size="10" font-family="monospace">Agent</text>
  <circle cx="460" cy="180" r="32" fill="none" stroke="#0071E3" stroke-width="2" opacity="0.9"/>
  <text x="460" y="175" text-anchor="middle" fill="#0071E3" font-size="11" font-family="monospace">RAG</text>
  <text x="460" y="192" text-anchor="middle" fill="#86868B" font-size="8" font-family="monospace">Pipeline</text>
  <circle cx="460" cy="330" r="28" fill="none" stroke="#2997FF" stroke-width="1.5" opacity="0.8"/>
  <text x="460" y="335" text-anchor="middle" fill="#2997FF" font-size="10" font-family="monospace">Tools</text>
  <circle cx="640" cy="225" r="32" fill="none" stroke="#0071E3" stroke-width="2" opacity="0.9"/>
  <text x="640" y="220" text-anchor="middle" fill="#0071E3" font-size="11" font-family="monospace">LLM</text>
  <text x="640" y="237" text-anchor="middle" fill="#86868B" font-size="8" font-family="monospace">Generate</text>
  <line x1="148" y1="225" x2="252" y2="120" stroke="#0071E3" stroke-width="1" opacity="0.4"/>
  <line x1="148" y1="225" x2="252" y2="330" stroke="#0071E3" stroke-width="1" opacity="0.4"/>
  <line x1="308" y1="120" x2="428" y2="180" stroke="#2997FF" stroke-width="1" opacity="0.4"/>
  <line x1="308" y1="330" x2="432" y2="330" stroke="#2997FF" stroke-width="1" opacity="0.4"/>
  <line x1="308" y1="330" x2="428" y2="212" stroke="#2997FF" stroke-width="1" opacity="0.3"/>
  <line x1="492" y1="180" x2="608" y2="225" stroke="#0071E3" stroke-width="1.5" opacity="0.5"/>
  <line x1="488" y1="330" x2="608" y2="240" stroke="#2997FF" stroke-width="1" opacity="0.3"/>
  <circle cx="120" cy="225" r="3" fill="#0071E3" opacity="0.6"/>
  <circle cx="640" cy="225" r="3" fill="#0071E3" opacity="0.6"/>
  <text x="400" y="420" text-anchor="middle" fill="#86868B" font-size="11" font-family="monospace" letter-spacing="2">RAG KNOWLEDGE ENGINE</text>
</svg>