<svg xmlns="http://www.w3.org/2000/svg" viewBox="0 0 800 450" fill="none">
  <rect width="800" height="450" fill="#0a0a0f"/>
  <rect x="60" y="180" width="120" height="50" rx="8" fill="none" stroke="#0071E3" stroke-width="1.5" opacity="0.8"/>
  <text x="120" y="210" text-anchor="middle" fill="#0071E3" font-size="10" font-family="monospace">Request</text>
  <rect x="60" y="260" width="120" height="50" rx="8" fill="none" stroke="#0071E3" stroke-width="1.5" opacity="0.8"/>
  <text x="120" y="290" text-anchor="middle" fill="#0071E3" font-size="10" font-family="monospace">Load Balancer</text>
  <rect x="260" y="140" width="120" height="50" rx="8" fill="none" stroke="#2997FF" stroke-width="1.5" opacity="0.8"/>
  <text x="320" y="170" text-anchor="middle" fill="#2997FF" font-size="10" font-family="monospace">vLLM</text>
  <rect x="260" y="220" width="120" height="50" rx="8" fill="none" stroke="#2997FF" stroke-width="1.5" opacity="0.8"/>
  <text x="320" y="250" text-anchor="middle" fill="#2997FF" font-size="10" font-family="monospace">TensorRT</text>
  <rect x="260" y="300" width="120" height="50" rx="8" fill="none" stroke="#2997FF" stroke-width="1.5" opacity="0.8"/>
  <text x="320" y="330" text-anchor="middle" fill="#2997FF" font-size="10" font-family="monospace">KV-Cache</text>
  <rect x="460" y="180" width="140" height="90" rx="10" fill="none" stroke="#0071E3" stroke-width="2" opacity="0.9"/>
  <text x="530" y="215" text-anchor="middle" fill="#0071E3" font-size="11" font-family="monospace">Speculative</text>
  <text x="530" y="235" text-anchor="middle" fill="#0071E3" font-size="11" font-family="monospace">Decoding</text>
  <text x="530" y="255" text-anchor="middle" fill="#86868B" font-size="8" font-family="monospace">Engine</text>
  <rect x="680" y="195" width="80" height="60" rx="8" fill="none" stroke="#0071E3" stroke-width="1.5" opacity="0.8"/>
  <text x="720" y="230" text-anchor="middle" fill="#0071E3" font-size="10" font-family="monospace">Output</text>
  <line x1="180" y1="205" x2="260" y2="165" stroke="#0071E3" stroke-width="1" opacity="0.4"/>
  <line x1="180" y1="285" x2="260" y2="325" stroke="#0071E3" stroke-width="1" opacity="0.4"/>
  <line x1="180" y1="230" x2="260" y2="245" stroke="#0071E3" stroke-width="1" opacity="0.4"/>
  <line x1="380" y1="165" x2="460" y2="200" stroke="#2997FF" stroke-width="1" opacity="0.4"/>
  <line x1="380" y1="245" x2="460" y2="245" stroke="#2997FF" stroke-width="1" opacity="0.4"/>
  <line x1="380" y1="325" x2="460" y2="270" stroke="#2997FF" stroke-width="1" opacity="0.4"/>
  <line x1="600" y1="225" x2="680" y2="225" stroke="#0071E3" stroke-width="1.5" opacity="0.5"/>
  <text x="400" y="420" text-anchor="middle" fill="#86868B" font-size="11" font-family="monospace" letter-spacing="2">LLM INFERENCE PLATFORM</text>
</svg>